HIERARCHY
ROOT Hips
{
	OFFSET -3.958830 18.904000 13.208200
	CHANNELS 6 Xposition Yposition Zposition Zrotation Yrotation Xrotation 
	JOINT LHipJoint
	{
		OFFSET 0.000000 0.000000 0.000000
		CHANNELS 3 Zrotation Yrotation Xrotation
		JOINT LeftUpLeg
		{
			OFFSET 1.800000 -1.400000 0.085000
			CHANNELS 3 Zrotation Yrotation Xrotation
			JOINT LeftLeg
			{
				OFFSET 2.215000 -6.000000 0.000000
				CHANNELS 3 Zrotation Yrotation Xrotation
				JOINT LeftFoot
				{
					OFFSET 2.500000 -6.900000 0.000000
					CHANNELS 3 Zrotation Yrotation Xrotation
					JOINT LeftToeBase
					{
						OFFSET 0.200000 -0.500000 1.950000
						CHANNELS 3 Zrotation Yrotation Xrotation
						End Site
						{
							OFFSET 0.000000 0.000000 0.000000
						}
					}
				}
			}
		}
	}
	JOINT RHipJoint
	{
		OFFSET 0.000000 0.000000 0.000000
		CHANNELS 3 Zrotation Yrotation Xrotation
		JOINT RightUpLeg
		{
			OFFSET -1.800000 -1.400000 0.085000
			CHANNELS 3 Zrotation Yrotation Xrotation
			JOINT RightLeg
			{
				OFFSET -2.215000 -6.000000 0.000000
				CHANNELS 3 Zrotation Yrotation Xrotation
				JOINT RightFoot
				{
					OFFSET -2.500000 -6.900000 0.000000
					CHANNELS 3 Zrotation Yrotation Xrotation
					JOINT RightToeBase
					{
						OFFSET -0.200000 -0.500000 1.950000
						CHANNELS 3 Zrotation Yrotation Xrotation
						End Site
						{
							OFFSET 0.000000 0.000000 0.000000
						}
					}
				}
			}
		}
	}
	JOINT LowerBack
	{
		OFFSET 0.000000 0.000000 0.000000
		CHANNELS 3 Zrotation Yrotation Xrotation
		JOINT Spine
		{
			OFFSET -0.087000 1.940000 -0.288900
			CHANNELS 3 Zrotation Yrotation Xrotation
			JOINT Spine1
			{
				OFFSET 0.000000 1.950000 0.060000
				CHANNELS 3 Zrotation Yrotation Xrotation
				JOINT Neck
				{
					OFFSET 0.000000 0.000000 0.000000
					CHANNELS 3 Zrotation Yrotation Xrotation
					JOINT Neck1
					{
						OFFSET 0.000000 1.600000 0.340000
						CHANNELS 3 Zrotation Yrotation Xrotation
						JOINT Head
						{
							OFFSET 0.000000 1.667000 -0.240000
							CHANNELS 3 Zrotation Yrotation Xrotation
							End Site
							{
								OFFSET 0.000000 0.000000 0.000000
							}
						}
					}
				}
				JOINT LeftShoulder
				{
					OFFSET 0.000000 0.000000 0.000000
					CHANNELS 3 Zrotation Yrotation Xrotation
					JOINT LeftArm
					{
						OFFSET 2.700000 1.550000 -0.730000
						CHANNELS 3 Zrotation Yrotation Xrotation
						JOINT LeftForeArm
						{
							OFFSET 5.450000 0.000000 0.000000
							CHANNELS 3 Zrotation Yrotation Xrotation
							JOINT LeftHand
							{
								OFFSET 3.450000 0.000000 0.000000
								CHANNELS 3 Zrotation Yrotation Xrotation
								JOINT LeftHandIndex1
								{
									OFFSET 0.750000 0.000000 0.000000
									CHANNELS 3 Zrotation Yrotation Xrotation
									End Site
									{
										OFFSET 0.000000 0.000000 0.000000
									}
								}
							}
						}
					}
				}
				JOINT RightShoulder
				{
					OFFSET 0.000000 0.000000 0.000000
					CHANNELS 3 Zrotation Yrotation Xrotation
					JOINT RightArm
					{
						OFFSET -2.700000 1.550000 -0.730000
						CHANNELS 3 Zrotation Yrotation Xrotation
						JOINT RightForeArm
						{
							OFFSET -5.450000 0.000000 0.000000
							CHANNELS 3 Zrotation Yrotation Xrotation
							JOINT RightHand
							{
								OFFSET -3.450000 0.000000 0.000000
								CHANNELS 3 Zrotation Yrotation Xrotation
								JOINT RightHandIndex1
								{
									OFFSET -0.750000 0.000000 0.000000
									CHANNELS 3 Zrotation Yrotation Xrotation
									End Site
									{
										OFFSET 0.000000 0.000000 0.000000
									}
								}
							}
						}
					}
				}
			}
		}
	}
}
MOTION
Frames: 13
Frame Time: 0.016667
0.278940 17.152280 -2.328460 2.267282 20.235483 3.894835 -14.831600 10.919151 3.469529 14.969517 -5.205276 -27.156498 -16.862219 12.881655 30.410910 -0.165277 7.473042 1.819934 0.466190 0.080790 0.581190 18.839256 -9.480638 4.593642 -27.266985 3.780373 -31.205755 39.381123 -16.368359 22.021701 -1.073124 -7.518690 1.670094 0.113630 -0.022460 0.108180 -5.102942 0.536160 -9.043845 18.380387 -1.681521 19.776138 -13.503645 2.741394 4.440304 4.695433 5.607568 -8.258795 7.407025 -9.687668 47.115943 -4.754270 -4.424440 -8.158500 -24.748851 -6.822348 2.080943 -29.336755 7.877215 -9.249627 -54.957585 -27.322829 8.538133 -3.448531 3.075856 0.683070 -0.016360 0.098570 0.076220 14.659968 2.232168 5.045412 53.489229 -9.206424 -15.694538 57.274456 23.597495 4.353634 2.161508 -1.595016 -0.260050 0.224750 -0.112270 -0.352350 
0.278210 17.129640 -2.334290 2.422237 20.480841 3.963846 -14.833929 10.794491 3.568982 15.470256 -5.356755 -27.712326 -17.751545 13.439586 30.979553 -0.117009 7.731667 1.723316 0.466200 0.080690 0.581500 18.856273 -9.424000 4.592465 -27.769833 3.612390 -30.978803 39.957226 -16.399663 21.552445 -1.085685 -7.548915 1.653653 0.113200 -0.029330 0.111690 -5.114633 0.600938 -9.104382 18.357131 -1.621566 19.790211 -13.780318 2.829451 4.321688 4.754836 5.841841 -8.331525 7.885711 -10.022136 47.487076 -4.881970 -4.480330 -7.958160 -24.869302 -6.997060 2.147637 -28.813975 8.001146 -9.170523 -55.164170 -27.462101 8.688698 -3.441495 3.085712 0.686050 -0.017990 0.102120 0.073150 14.654389 2.262365 5.071537 54.120417 -9.176204 -15.788336 56.438438 23.172020 4.018543 2.164242 -1.587780 -0.257800 0.217470 -0.110580 -0.354890 
0.278120 17.086310 -2.339830 2.581793 20.811090 4.107241 -14.831108 10.559843 3.734328 16.559625 -5.496377 -28.575817 -19.438667 14.433902 31.649645 -0.042330 8.168026 1.558586 0.460760 0.074240 0.582140 18.896979 -9.314852 4.604044 -28.667991 3.375469 -30.640430 41.252773 -16.529986 20.745597 -1.113714 -7.619573 1.625783 0.111790 -0.041620 0.108480 -5.156534 0.739587 -9.210483 18.502342 -1.548854 19.707015 -14.406674 2.982553 4.144743 4.877792 6.184343 -8.445341 8.673387 -10.424461 48.090818 -4.935220 -4.438060 -7.895240 -24.886523 -7.128368 2.248816 -28.158597 8.294166 -9.097480 -55.268902 -27.845075 8.953700 -3.433262 3.085732 0.697680 -0.022780 0.105170 0.060820 14.400446 2.169798 5.104518 55.568688 -9.058229 -15.988530 54.814285 22.467481 3.484895 2.164841 -1.559683 -0.262480 0.213920 -0.101150 -0.366040 
0.278500 17.036930 -2.347640 2.826352 21.088111 4.205396 -14.834789 10.318461 3.906369 17.612988 -5.642888 -29.463057 -21.140878 15.527938 32.468137 0.049956 8.635994 1.389799 0.458500 0.065160 0.587990 18.934385 -9.183805 4.641742 -29.893396 3.073475 -30.299675 42.915214 -16.830876 20.015235 -1.162285 -7.742627 1.582487 0.103930 -0.052500 0.111760 -5.178926 0.858380 -9.341597 18.464346 -1.350838 19.827901 -14.942181 3.249944 3.757905 4.980726 6.622498 -8.669257 9.680768 -10.956867 49.215383 -4.779870 -4.481570 -7.691830 -24.979238 -7.437800 2.372881 -27.601397 8.384948 -8.968413 -54.810792 -28.035164 9.024258 -3.425068 3.080003 0.714660 -0.029690 0.113880 0.051490 14.260180 2.264098 5.202083 57.197141 -8.978956 -16.236021 52.638816 21.515440 2.793147 2.170428 -1.521251 -0.262810 0.209410 -0.094290 -0.375540 
0.276630 16.991320 -2.358730 2.952834 21.355366 4.191722 -14.831448 10.106990 4.039136 18.474885 -5.740301 -30.246789 -22.364505 16.404114 33.206207 0.122182 8.994991 1.255328 0.461930 0.066650 0.599310 18.973996 -9.077391 4.693489 -31.069358 2.822479 -30.060646 44.530634 -17.149377 19.432061 -1.217752 -7.857813 1.539938 0.098890 -0.071580 0.114780 -5.219076 0.995040 -9.457557 18.612051 -1.264187 20.131069 -15.629300 3.470248 3.356643 5.112848 7.065110 -8.928808 10.820970 -11.485028 50.507933 -4.468830 -4.444160 -7.887530 -25.038940 -7.766304 2.525474 -27.081436 8.506219 -8.889986 -54.353922 -28.451104 9.200116 -3.409867 3.072595 0.736920 -0.044410 0.133200 0.040770 14.029699 2.374499 5.304843 58.912503 -8.738632 -16.466915 50.505943 20.952310 2.333404 2.177764 -1.478559 -0.258780 0.206770 -0.090220 -0.384760 
0.271350 16.951870 -2.371020 2.827492 21.468693 4.112446 -14.826363 9.945767 4.144861 19.297932 -5.739202 -30.929950 -23.162680 17.056936 33.771169 0.177434 9.256130 1.158641 0.462510 0.062030 0.610040 19.007051 -8.982452 4.749819 -31.932201 2.709489 -29.965560 46.106008 -17.451248 18.978591 -1.271655 -7.951584 1.509578 0.087960 -0.088940 0.114590 -5.256504 1.091113 -9.562810 19.023215 -1.275682 20.579513 -16.270131 3.658559 2.790865 5.193618 7.264634 -9.213304 11.442457 -11.830130 51.856239 -4.089240 -4.480990 -8.035840 -25.049017 -7.954794 2.612827 -26.811054 8.571688 -8.814603 -53.743361 -28.847126 9.347671 -3.392039 3.059030 0.761000 -0.062550 0.151850 0.032160 13.809649 2.557725 5.520261 60.651044 -8.757124 -16.913500 48.427595 21.256583 2.205453 2.185784 -1.434227 -0.256160 0.205690 -0.088820 -0.391910 
0.258600 16.926220 -2.388970 2.629250 21.483770 3.956554 -14.834544 9.853042 4.247056 19.903905 -5.792010 -31.631626 -23.550143 17.561163 34.503018 0.213581 9.468074 1.070898 0.453820 0.055580 0.605560 19.015113 -8.901813 4.780370 -32.318451 2.695213 -29.941480 47.150002 -17.640207 18.730398 -1.305029 -7.995075 1.494369 0.079310 -0.106130 0.106930 -5.245132 1.092051 -9.653643 19.201746 -1.415050 21.382882 -16.581122 3.725042 2.173354 5.185751 7.265513 -9.441664 11.606481 -11.825805 53.117104 -3.502080 -4.429470 -8.432790 -25.138524 -8.091328 2.663133 -26.944844 8.674769 -8.902310 -52.805908 -29.438812 9.451508 -3.378404 3.042471 0.784110 -0.082530 0.165530 0.017640 13.863621 2.839155 5.673632 61.939987 -8.775105 -17.387374 46.614138 21.922170 2.220316 2.190730 -1.386640 -0.257860 0.207040 -0.076530 -0.399120 
0.241630 16.914610 -2.409570 2.259755 21.253491 3.631429 -14.847853 9.841457 4.308183 20.322648 -5.782135 -32.099947 -23.351146 17.771509 35.201311 0.218962 9.588034 1.015782 0.463160 0.058010 0.619820 19.002320 -8.864093 4.785107 -32.107808 2.888414 -30.001002 47.576497 -17.727788 18.797547 -1.337441 -7.993630 1.490955 0.073060 -0.122570 0.115940 -5.204367 1.048717 -9.704964 19.262587 -1.570417 22.399873 -16.554582 3.781176 1.725096 5.152586 7.247329 -9.657891 11.717064 -11.811806 54.342475 -2.945090 -4.363800 -9.294430 -25.184636 -8.252274 2.741206 -27.502902 8.810837 -9.168521 -51.970445 -30.226514 9.565183 -3.367845 3.024862 0.819490 -0.103470 0.191170 0.010040 13.969873 3.167664 5.767411 62.711469 -8.684944 -17.809728 45.337369 22.773000 2.343776 2.188339 -1.348077 -0.254090 0.209630 -0.071660 -0.407850 
0.221160 16.914820 -2.432300 1.964985 20.898981 3.407223 -14.864829 9.886514 4.324656 20.419039 -5.781890 -32.355458 -22.796739 17.637735 35.546071 0.196911 9.570815 1.006005 0.464820 0.057680 0.624650 18.976474 -8.856562 4.787943 -31.671560 3.135949 -30.258151 47.511410 -17.777399 19.131204 -1.350074 -7.978730 1.496496 0.066060 -0.128720 0.124930 -5.141823 0.977513 -9.723388 18.992679 -1.659319 23.456090 -16.300104 3.811590 1.355018 5.072895 7.293154 -9.776752 11.920083 -11.761989 55.059126 -2.313950 -4.242930 -10.062380 -25.258538 -8.372884 2.769738 -27.918880 8.856241 -9.394804 -51.658914 -30.814246 9.705588 -3.370213 3.011199 0.841450 -0.113420 0.207630 0.001150 14.229953 3.368371 5.773859 63.155667 -8.674650 -18.226022 44.236317 23.663057 2.471327 2.184102 -1.312322 -0.249680 0.212360 -0.062210 -0.412010 
0.199640 16.928760 -2.453400 1.778991 20.469925 3.293671 -14.883456 9.970783 4.316695 20.276695 -5.784569 -32.424993 -22.160480 17.337597 35.626915 0.179063 9.453128 1.030373 0.480840 0.085700 0.634230 18.940990 -8.872924 4.779396 -31.053608 3.412280 -30.489833 46.960645 -17.635188 19.481058 -1.351156 -7.915748 1.514171 0.070420 -0.146810 0.125790 -5.065827 0.885099 -9.717754 18.426399 -1.700478 24.442255 -15.826269 3.791379 1.161873 4.942831 7.270066 -9.842521 11.963781 -11.502991 55.629309 -1.567670 -3.961960 -10.914100 -25.163104 -8.430410 2.816601 -28.466673 8.866147 -9.690424 -51.593099 -31.248408 9.808003 -3.358005 3.011474 0.850300 -0.131830 0.230250 -0.000080 14.453763 3.541234 5.679334 63.174193 -8.468005 -18.403561 43.233491 24.193427 2.508215 2.192487 -1.293302 -0.233580 0.209690 -0.071310 -0.408210 
0.171170 16.951180 -2.477110 1.740356 20.006048 3.388618 -14.912979 10.083115 4.306330 19.871268 -5.865072 -32.590650 -21.348806 16.892988 35.654725 0.151407 9.280687 1.081195 0.507370 0.124930 0.644730 18.891054 -8.903102 4.756522 -30.271842 3.694106 -30.861090 45.868781 -17.444275 20.063706 -1.340445 -7.839972 1.539094 0.083370 -0.158970 0.130510 -4.953975 0.760599 -9.693401 17.400734 -1.633639 25.402729 -15.064928 3.721496 1.009748 4.830111 7.263809 -9.722414 12.011161 -11.203777 55.551236 -1.113110 -3.578870 -11.660310 -25.137224 -8.313677 2.754059 -28.978522 8.699932 -9.924153 -51.490483 -31.571640 9.870490 -3.348366 3.023660 0.851170 -0.141610 0.247600 0.010460 14.757515 3.533574 5.394441 62.814193 -7.939068 -18.227057 41.986576 24.334844 2.443033 2.197339 -1.290894 -0.216020 0.204610 -0.089820 -0.401990 
0.141990 16.982910 -2.504520 1.706003 19.401803 3.678096 -14.945495 10.228629 4.275486 19.245879 -5.960508 -32.742186 -20.312651 16.206413 35.369684 0.107299 9.000809 1.172711 0.525410 0.154370 0.655160 18.835092 -8.939856 4.736098 -29.323501 4.006486 -31.482167 44.496262 -17.264325 20.879470 -1.318699 -7.752065 1.566437 0.092250 -0.169450 0.131060 -4.828743 0.596339 -9.651489 16.251410 -1.585266 26.250592 -14.209934 3.569840 0.924866 4.704396 7.187355 -9.569603 11.813635 -10.768993 55.107487 -0.893390 -3.133990 -12.236350 -24.978724 -8.099404 2.677268 -29.621194 8.516267 -10.171321 -51.553398 -31.789225 9.920728 -3.341842 3.034263 0.845270 -0.150020 0.260360 0.018620 14.960792 3.454280 5.125065 62.480044 -7.489070 -18.168572 40.751624 24.981000 2.515445 2.205688 -1.291375 -0.201910 0.199560 -0.108380 -0.395270 
0.114430 17.026330 -2.534610 1.477863 18.693958 4.011391 -14.966513 10.396402 4.233155 18.662766 -6.013357 -32.767653 -19.198016 15.343026 34.709619 0.025947 8.657409 1.285815 0.526350 0.157300 0.652970 18.786027 -9.008490 4.690531 -28.025755 4.375198 -32.215315 42.613591 -17.135820 22.098201 -1.278828 -7.656367 1.599498 0.096050 -0.167170 0.128860 -4.734336 0.438834 -9.588116 15.463660 -1.734177 27.034806 -13.649535 3.325371 0.860832 4.597298 7.054024 -9.390404 11.418820 -10.175795 54.491229 -0.681260 -2.703210 -12.675240 -24.933184 -7.934830 2.558200 -30.008648 8.357556 -10.363144 -51.896437 -31.907797 9.988148 -3.345172 3.036759 0.847090 -0.150120 0.258960 0.020990 15.205367 3.345208 4.943087 62.108608 -7.425589 -18.360870 40.405445 25.909271 2.736281 2.200549 -1.290961 -0.206180 0.201130 -0.109820 -0.396350 
